<?xml version="1.0" encoding="UTF-8"?>
<svg id="Camada_1" xmlns="http://www.w3.org/2000/svg" viewBox="0 0 327.62 616.22">
  <defs>
    <style>
      .cls-1 {
        fill: #d2d3d5;
      }

      .cls-2 {
        fill: #fff;
        opacity: .25;
      }

      .cls-3 {
        fill: #006c64;
      }

      .cls-4 {
        fill: #9d9d9c;
      }

      .cls-5 {
        fill: #009e73;
      }
    </style>
  </defs>
  <path class="cls-1" d="M302.23,0H25.39c-5.65,0-10.22,4.58-10.22,10.22s4.58,10.22,10.22,10.22h276.84c5.65,0,10.22-4.58,10.22-10.22s-4.58-10.22-10.22-10.22Z"/>
  <path class="cls-4" d="M302.23,0h-37.17c5.65,0,10.22,4.58,10.22,10.22s-4.58,10.22-10.22,10.22h37.17c5.65,0,10.22-4.58,10.22-10.22s-4.58-10.22-10.22-10.22Z"/>
  <g>
    <path class="cls-1" d="M163.84,581.35s-150.63.92-163.84-19.85c14,18.99,36.77,52.22,101.93,54.73h123.75c13.07-.5,24.42-2.24,34.35-4.85,9.35-5.64,25.9-17.99,31.24-37.15-48.58,7.6-127.44,7.12-127.44,7.12Z"/>
    <path class="cls-4" d="M327.62,561.5c-3.65,5.74-17.79,9.82-36.34,12.72-5.33,19.16-21.89,31.51-31.24,37.15,39.58-10.41,56.38-34.69,67.58-49.87Z"/>
  </g>
  <path class="cls-5" d="M303.87,20.44H23.75L0,47.54v513.96c13.2,20.77,163.78,19.85,163.78,19.85h.06s78.85.48,127.44-7.12c18.55-2.9,32.69-6.98,36.34-12.72V47.54l-23.75-27.1Z"/>
  <path class="cls-3" d="M327.62,561.5V47.54l-23.75-27.1h-37.36l24.77,27.1v526.68c18.55-2.9,32.69-6.98,36.34-12.72Z"/>
  <rect class="cls-2" x="15.1" y="100.55" width="24.92" height="415.88" rx="12.46" ry="12.46"/>
</svg>